<svg xmlns="http://www.w3.org/2000/svg" width="837" height="815" viewBox="0 0 837 815" fill="none">
<path fill-rule="evenodd" clip-rule="evenodd" d="M836.55 214.518V506.943C836.55 548.438 828.31 588.066 813.383 624.253C797.871 661.871 775.136 695.805 746.949 724.258L746.642 724.575C718.445 753.008 684.816 775.962 647.537 791.616C611.676 806.677 572.394 815 531.282 815H305.277C264.166 815 224.893 806.677 189.032 791.624C151.724 775.962 118.085 753.008 89.8979 724.575L88.2596 722.913H87.9913C60.5467 694.801 38.3793 661.426 23.1657 624.485C8.24818 588.24 0 548.534 0 506.943V430.818H149.031V506.943C149.031 528.154 153.266 548.447 160.931 567.01C168.165 584.528 178.445 600.48 191.092 614.17L190.862 614.392L194.847 618.404C209.286 632.935 226.522 644.653 245.626 652.648C264.051 660.353 284.209 664.607 305.277 664.607H531.282C552.35 664.607 572.509 660.353 590.933 652.648C610.037 644.653 627.273 632.935 641.712 618.404L641.731 618.385C656.131 603.806 667.753 586.413 675.667 567.135C683.312 548.544 687.537 528.203 687.537 506.943V214.518H836.55ZM212.591 506.936V370.542V364.886H0V0H750.523L837 150.375H148.562V214.511H373.369C373.369 219.205 373.367 229.869 373.364 244.043C373.352 303.828 373.328 426.06 373.398 426.122C373.398 427.708 373.561 429.255 373.858 430.744C374.174 432.32 374.624 433.808 375.18 435.162C375.793 436.641 376.54 438.033 377.403 439.329C378.294 440.644 379.29 441.881 380.421 443.003L381.503 444.085L381.858 444.395C382.835 445.226 383.841 445.961 384.866 446.58C385.958 447.257 387.06 447.827 388.152 448.281C389.57 448.881 391.075 449.335 392.608 449.644C394.131 449.944 395.693 450.099 397.264 450.099H439.295C440.876 450.099 442.438 449.944 443.952 449.644C445.494 449.335 446.989 448.881 448.417 448.281C449.863 447.672 451.243 446.928 452.565 446.058C453.82 445.207 455.037 444.192 456.187 443.041L456.206 443.032C457.317 441.901 458.323 440.663 459.185 439.348C460.038 438.043 460.776 436.641 461.389 435.191C461.973 433.75 462.433 432.242 462.74 430.666C463.027 429.129 463.19 427.563 463.19 425.987V214.511H623.968V506.936C623.968 513.269 623.374 519.408 622.243 525.276C621.065 531.329 619.321 537.11 617.079 542.572C614.713 548.334 611.81 553.797 608.447 558.901C605.046 564.045 601.175 568.83 596.911 573.162C592.61 577.473 587.877 581.379 582.77 584.802C577.721 588.195 572.308 591.125 566.607 593.513C561.184 595.775 555.455 597.534 549.457 598.724C543.641 599.864 537.567 600.473 531.282 600.473H305.277C299.002 600.473 292.918 599.864 287.102 598.724C281.105 597.534 275.366 595.775 269.962 593.513C265.411 591.618 261.1 589.404 257.066 586.929C253.042 584.454 249.21 581.689 245.626 578.672L239.916 572.891C235.509 568.444 231.552 563.629 228.132 558.495C224.721 553.42 221.837 548.044 219.528 542.456C217.267 536.984 215.514 531.203 214.335 525.18C213.195 519.331 212.591 513.23 212.591 506.936Z" fill="rgba(255, 255, 255, 0.07)"/>
</svg>