<svg width="32" height="43" viewBox="0 0 32 43" fill="none" xmlns="http://www.w3.org/2000/svg">
<path d="M32 16C32 24.8366 24 35 16 43C8 35 0 24.8366 0 16C0 7.16344 7.16344 0 16 0C24.8366 0 32 7.16344 32 16Z" fill="#185F9F"/>
<circle cx="16" cy="16" r="12" fill="white"/>
<path fill-rule="evenodd" clip-rule="evenodd" d="M13.3019 15.9105V18.0861C13.3019 18.1865 13.3113 18.2838 13.329 18.3771C13.3473 18.4732 13.3745 18.5654 13.4096 18.6527C13.4455 18.7418 13.4903 18.8276 13.5433 18.9085C13.5964 18.9904 13.6578 19.0672 13.7263 19.1382L13.815 19.2304C13.8706 19.2785 13.9302 19.3226 13.9927 19.3621C14.0553 19.4016 14.1223 19.4369 14.193 19.4671C14.2769 19.5032 14.366 19.5312 14.4592 19.5502C14.5495 19.5684 14.644 19.5781 14.7415 19.5781H18.2517C18.3493 19.5781 18.4437 19.5684 18.534 19.5502C18.6271 19.5312 18.7161 19.5032 18.8003 19.4671C18.8889 19.429 18.973 19.3823 19.0514 19.3281C19.1307 19.2736 19.2042 19.2113 19.271 19.1425C19.3372 19.0734 19.3974 18.9971 19.4502 18.915C19.5024 18.8336 19.5475 18.7465 19.5843 18.6545C19.6191 18.5674 19.6462 18.4752 19.6645 18.3787C19.682 18.2851 19.6913 18.1871 19.6913 18.0861V13.4217H17.1941V16.7949C17.1941 16.82 17.1916 16.845 17.1871 16.8695C17.1824 16.8947 17.1752 16.9187 17.1661 16.9417C17.1566 16.9648 17.1452 16.9872 17.1319 17.008C17.1185 17.029 17.1029 17.0487 17.0856 17.0668L17.0853 17.0669C17.0675 17.0853 17.0486 17.1015 17.0291 17.1151C17.0086 17.1289 16.9871 17.1408 16.9647 17.1505C16.9425 17.1601 16.9193 17.1673 16.8953 17.1723C16.8718 17.177 16.8475 17.1795 16.823 17.1795H16.1702C16.1458 17.1795 16.1215 17.177 16.0978 17.1723C16.074 17.1673 16.0507 17.1601 16.0287 17.1505C16.0117 17.1433 15.9946 17.1342 15.9776 17.1234C15.9617 17.1135 15.9461 17.1018 15.9309 17.0885L15.9254 17.0836L15.9086 17.0663C15.891 17.0484 15.8755 17.0287 15.8617 17.0077C15.8483 16.9871 15.8367 16.9648 15.8272 16.9413C15.8185 16.9197 15.8115 16.8959 15.8066 16.8708C15.802 16.847 15.7995 16.8224 15.7995 16.7971C15.7981 16.7958 15.799 13.8123 15.799 13.4217H12.3074V12.3986C15.8717 12.3986 19.4359 12.3986 23 12.3986L21.6569 10H10V15.8203H13.3019V15.9105Z" fill="#C42927"/>
<path fill-rule="evenodd" clip-rule="evenodd" d="M22.993 18.0862V13.4218H20.6786V18.0862C20.6786 18.4253 20.613 18.7498 20.4942 19.0463C20.3713 19.3538 20.1908 19.6313 19.9671 19.8638L19.9669 19.8641C19.7426 20.0959 19.4749 20.2828 19.1782 20.4103C18.892 20.5332 18.5789 20.6011 18.2517 20.6011H14.7415C14.4142 20.6011 14.1011 20.5332 13.815 20.4103C13.5183 20.2828 13.2506 20.0959 13.0263 19.8641L12.9644 19.8001L12.968 19.7966C12.7715 19.5782 12.6119 19.3238 12.4995 19.0443C12.3805 18.7482 12.3147 18.4245 12.3147 18.0862V16.8719H10V18.0862C10 18.7496 10.1281 19.383 10.3598 19.9611C10.5961 20.5504 10.9404 21.0827 11.3667 21.5311H11.3708L11.3963 21.5576C11.8341 22.0112 12.3565 22.3773 12.936 22.6271C13.493 22.8672 14.1029 23 14.7415 23H18.2517C18.8902 23 19.5003 22.8672 20.0573 22.627C20.6363 22.3773 21.1587 22.0112 21.5966 21.5576L21.6014 21.5526C22.0391 21.0987 22.3923 20.5575 22.6332 19.9574C22.865 19.3802 22.993 18.7481 22.993 18.0862Z" fill="#185F9F"/>
</svg>