<svg xmlns="http://www.w3.org/2000/svg" width="190" height="31" viewBox="0 0 190 31" fill="none">
<path fill-rule="evenodd" clip-rule="evenodd" d="M8.0035 14.2414V19.3843C8.0035 19.6216 8.02623 19.8516 8.06915 20.0721C8.11352 20.2992 8.17952 20.5172 8.26465 20.7236C8.35158 20.9343 8.46015 21.1369 8.58855 21.3283C8.71732 21.5219 8.86629 21.7034 9.03221 21.8711L9.24719 22.0891C9.38209 22.2028 9.52637 22.3071 9.67786 22.4004C9.82971 22.4937 9.99203 22.5772 10.1634 22.6487C10.3668 22.734 10.5828 22.8003 10.8086 22.8452C11.0276 22.8882 11.2566 22.9111 11.4929 22.9111H20.0014C20.238 22.9111 20.4667 22.8882 20.6856 22.8452C20.9114 22.8003 21.1271 22.734 21.3313 22.6487C21.5459 22.5586 21.7497 22.4482 21.9398 22.3202C22.132 22.1912 22.3102 22.0439 22.4721 21.8813C22.6327 21.718 22.7784 21.5376 22.9064 21.3436C23.033 21.1512 23.1423 20.9452 23.2314 20.7279C23.3158 20.522 23.3815 20.304 23.4258 20.0758C23.4684 19.8545 23.4907 19.623 23.4907 19.3843V8.35818H17.4379V16.332C17.4379 16.3914 17.4318 16.4505 17.4209 16.5084C17.4094 16.5679 17.3921 16.6247 17.3701 16.679C17.347 16.7337 17.3192 16.7866 17.2871 16.8358C17.2547 16.8854 17.2168 16.932 17.1749 16.9747L17.1742 16.9751C17.1309 17.0184 17.0851 17.0567 17.0379 17.0888C16.9881 17.1216 16.9362 17.1497 16.8817 17.1726C16.828 17.1952 16.7717 17.2124 16.7136 17.224C16.6566 17.2353 16.5978 17.2412 16.5383 17.2412H14.9559C14.8968 17.2412 14.838 17.2353 14.7806 17.224C14.7229 17.2124 14.6663 17.1952 14.6129 17.1726C14.5718 17.1555 14.5303 17.134 14.4892 17.1085C14.4506 17.0851 14.4127 17.0574 14.3759 17.0261L14.3626 17.0144L14.3218 16.9736C14.2793 16.9313 14.2418 16.8846 14.2082 16.8351C14.1758 16.7862 14.1476 16.7337 14.1245 16.678C14.1036 16.6269 14.0867 16.5708 14.0748 16.5114C14.0636 16.4552 14.0574 16.3969 14.0574 16.3371C14.0542 16.3342 14.0564 9.28155 14.0564 8.35818H5.59296V5.93986C14.2324 5.93986 22.8718 5.93986 31.5108 5.93986L28.2552 0.269882H0V14.0282H8.0035V14.2414Z" fill="#C42927"/>
<path fill-rule="evenodd" clip-rule="evenodd" d="M31.4939 19.3845V8.35842H25.884V19.3845C25.884 20.1861 25.7249 20.9531 25.4371 21.6541C25.1391 22.381 24.7016 23.0368 24.1595 23.5865L24.1588 23.5872C23.6152 24.1351 22.9663 24.5769 22.2471 24.8784C21.5534 25.1689 20.7945 25.3293 20.0014 25.3293H11.4929C10.6997 25.3293 9.94081 25.1689 9.24719 24.8784C8.52796 24.5769 7.87906 24.1351 7.33549 23.5872L7.18544 23.4359L7.1941 23.4276C6.71798 22.9114 6.33095 22.3099 6.05863 21.6494C5.77007 20.9494 5.61064 20.1843 5.61064 19.3845V16.5142H0V19.3845C0 20.9527 0.310522 22.4499 0.872128 23.8165C1.44488 25.2094 2.27942 26.4678 3.31264 27.5278H3.32274L3.38442 27.5905C4.44559 28.6626 5.71199 29.528 7.11655 30.1186C8.46664 30.6862 9.94514 31 11.4929 31H20.0014C21.5491 31 23.028 30.6862 24.3781 30.1183C25.7815 29.528 27.0476 28.6626 28.1091 27.5905L28.1207 27.5785C29.1818 26.5057 30.0378 25.2262 30.6217 23.8078C31.1837 22.4433 31.4939 20.9491 31.4939 19.3845Z" fill="#185F9F"/>
<path fill-rule="evenodd" clip-rule="evenodd" d="M43.7178 30.9208L51.0966 30.9419L64.0196 8.35824H56.6617L53.2048 14.3938L45.1295 0.269943H37.7695L49.5218 20.8341L43.7178 30.9208Z" fill="#C42927"/>
<path fill-rule="evenodd" clip-rule="evenodd" d="M157.676 5.9401H166.185C166.976 5.9401 167.733 6.10122 168.426 6.39285C169.082 6.66916 169.679 7.06213 170.191 7.5455L170.199 7.53822L170.343 7.68403C170.885 8.23302 171.322 8.88882 171.621 9.6157C171.908 10.3167 172.067 11.0833 172.067 11.8849V19.3845C172.067 20.1861 171.908 20.9531 171.621 21.6541C171.322 22.381 170.885 23.0368 170.343 23.5865L170.342 23.5872C169.799 24.1351 169.15 24.5769 168.431 24.8784C167.737 25.1689 166.978 25.3293 166.185 25.3293H157.676C156.883 25.3293 156.124 25.1689 155.431 24.8784C154.711 24.5769 154.063 24.1351 153.519 23.5872L153.369 23.4359L153.377 23.4276C152.901 22.9114 152.514 22.3099 152.242 21.6494C151.953 20.9494 151.794 20.1843 151.794 19.3845V11.8849C151.794 11.0855 151.953 10.3203 152.242 9.62044C152.541 8.89429 152.98 8.23849 153.524 7.68913C154.067 7.13905 154.716 6.69577 155.435 6.39285C156.128 6.10122 156.885 5.9401 157.676 5.9401ZM166.185 0.270123H157.676C156.124 0.270123 154.643 0.583988 153.291 1.15157C151.884 1.74212 150.618 2.60715 149.557 3.67852C148.496 4.75208 147.64 6.03269 147.056 7.45292C146.494 8.81919 146.183 10.3167 146.183 11.8849V19.3845C146.183 20.9527 146.494 22.4499 147.056 23.8165C147.628 25.2094 148.463 26.4678 149.496 27.5278H149.506L149.568 27.5905C150.629 28.6626 151.895 29.528 153.3 30.1186C154.65 30.6862 156.128 31 157.676 31H166.185C167.733 31 169.211 30.6862 170.561 30.1183C171.965 29.528 173.231 28.6626 174.292 27.5905L174.304 27.5785C175.365 26.5057 176.221 25.2262 176.805 23.8078C177.367 22.4433 177.678 20.9491 177.678 19.3845V11.8849C177.678 10.3207 177.367 8.82612 176.805 7.46203C176.221 6.04362 175.365 4.7641 174.304 3.69128L174.242 3.62858V3.61728C173.193 2.57325 171.948 1.73045 170.57 1.15157C169.218 0.583988 167.737 0.270123 166.185 0.270123Z" fill="#185F9F"/>
<path fill-rule="evenodd" clip-rule="evenodd" d="M104.089 12.7999H83.7656V19.3845C83.7656 20.9527 84.0762 22.4499 84.6378 23.8165C85.2106 25.2094 86.0449 26.4678 87.0779 27.5278H87.0884L87.1504 27.5905C88.2112 28.6626 89.4776 29.528 90.8822 30.1186C92.2319 30.6862 93.7108 31 95.2585 31H110.158V25.3293H95.2585C94.4653 25.3293 93.7064 25.1689 93.0128 24.8784C92.2936 24.5769 91.6447 24.1351 91.1011 23.5872L90.9511 23.4359L90.9597 23.4276C90.4836 22.9114 90.0966 22.3099 89.8242 21.6494C89.5357 20.9494 89.3759 20.1843 89.3759 19.3845V18.4699H110.158V12.7999H104.089Z" fill="#185F9F"/>
<path fill-rule="evenodd" clip-rule="evenodd" d="M128.118 18.545L138.561 30.8794H145.551L132.695 15.6582L144.988 -1.71661e-05H138.073L128.024 12.7999H121.523L121.522 9.40571H121.521V-1.71661e-05H115.716V30.8794H121.521V19.8409H121.522L121.522 18.4699H128.055L128.118 18.545Z" fill="#185F9F"/>
<path fill-rule="evenodd" clip-rule="evenodd" d="M76.4597 31V5.9401H110.105C109.892 5.58212 109.66 5.23545 109.411 4.9019C109.088 4.46884 108.736 4.06019 108.359 3.67925C107.297 2.60679 106.03 1.74175 104.625 1.15157C103.273 0.583988 101.791 0.270123 100.239 0.270123H61.2895L58.0454 5.9401H70.8696V31H76.4597Z" fill="#185F9F"/>
<path d="M182.505 1.09429H181.174V0.302155H184.797V1.09429H183.467V4.50342H182.505V1.09429Z" fill="#185F9F"/>
<path d="M189.097 4.50342L189.091 1.98266L187.868 4.05941H187.434L186.216 2.03661V4.50342H185.314V0.302155H186.11L187.665 2.91295L189.198 0.302155H189.988L190 4.50342H189.097Z" fill="#185F9F"/>
</svg>