<svg xmlns="http://www.w3.org/2000/svg" width="19" height="19" viewBox="0 0 19 19" fill="none">
<path d="M16.9736 8.74789L9.69823 16.0233C8.80693 16.9146 7.59808 17.4153 6.3376 17.4153C5.07712 17.4153 3.86827 16.9146 2.97698 16.0233C2.08568 15.132 1.58496 13.9232 1.58496 12.6627C1.58496 11.4022 2.08568 10.1934 2.97698 9.30206L10.2524 2.02664C10.8466 1.43245 11.6525 1.09863 12.4928 1.09863C13.3331 1.09863 14.139 1.43245 14.7332 2.02664C15.3274 2.62084 15.6612 3.42674 15.6612 4.26706C15.6612 5.10738 15.3274 5.91328 14.7332 6.50748L7.44989 13.7829C7.1528 14.08 6.74985 14.2469 6.32969 14.2469C5.90953 14.2469 5.50658 14.08 5.20948 13.7829C4.91238 13.4858 4.74547 13.0828 4.74547 12.6627C4.74547 12.2425 4.91238 11.8396 5.20948 11.5425L11.9307 4.82914" stroke="#252525" stroke-opacity="0.5" stroke-linecap="round" stroke-linejoin="round"/>
</svg>